<?xml version="1.0" encoding="UTF-8" standalone="no"?>
<!DOCTYPE svg PUBLIC "-//W3C//DTD SVG 1.1//EN" "http://www.w3.org/Graphics/SVG/1.1/DTD/svg11.dtd">
<svg version="1.1" xmlns="http://www.w3.org/2000/svg" xmlns:xlink="http://www.w3.org/1999/xlink" preserveAspectRatio="xMidYMid meet" viewBox="0 0 640 640" width="640" height="640"><defs><path d="M565.81 326.73L492.05 97.99L256.92 168.77L211.41 434.22" id="d53sefTT1X"></path><path d="M481.12 600.88C460.97 600.88 444.61 583.66 444.61 562.46C444.61 541.25 460.97 524.03 481.12 524.03C501.26 524.03 517.62 541.25 517.62 562.46C517.62 583.66 501.26 600.88 481.12 600.88Z" id="d1iARwoNM"></path><path d="M481.12 600.88C460.97 600.88 444.61 583.66 444.61 562.46C444.61 541.25 460.97 524.03 481.12 524.03C501.26 524.03 517.62 541.25 517.62 562.46C517.62 583.66 501.26 600.88 481.12 600.88Z" id="aBSKB9F5I"></path><path d="M557.23 428.01L9.81 428.01L9.81 562.81L557.23 562.81L557.23 428.01Z" id="d135wogiMg"></path><path d="M557.23 428.01L9.81 428.01L9.81 562.81L557.23 562.81L557.23 428.01Z" id="b107vlsmDd"></path><path d="M124.08 600.88C86.97 600.88 56.84 567.84 56.84 527.15C56.84 486.46 86.97 453.42 124.08 453.42C161.2 453.42 191.33 486.46 191.33 527.15C191.33 567.84 161.2 600.88 124.08 600.88Z" id="mycYJjNNY"></path><path d="M124.08 600.88C86.97 600.88 56.84 567.84 56.84 527.15C56.84 486.46 86.97 453.42 124.08 453.42C161.2 453.42 191.33 486.46 191.33 527.15C191.33 567.84 161.2 600.88 124.08 600.88Z" id="bwMy78Rdy"></path><path d="M260.7 189.07C249.66 189.07 240.7 180.11 240.7 169.07C240.7 158.03 249.66 149.07 260.7 149.07C271.74 149.07 280.7 158.03 280.7 169.07C280.7 180.11 271.74 189.07 260.7 189.07Z" id="a4MycZ6nF"></path><path d="M260.7 189.07C249.66 189.07 240.7 180.11 240.7 169.07C240.7 158.03 249.66 149.07 260.7 149.07C271.74 149.07 280.7 158.03 280.7 169.07C280.7 180.11 271.74 189.07 260.7 189.07Z" id="b6xWQZe2H"></path><path d="M489.22 118.99C478.18 118.99 469.22 110.03 469.22 98.99C469.22 87.95 478.18 78.99 489.22 78.99C500.26 78.99 509.22 87.95 509.22 98.99C509.22 110.03 500.26 118.99 489.22 118.99Z" id="g2j5w9XlDj"></path><path d="M489.22 118.99C478.18 118.99 469.22 110.03 469.22 98.99C469.22 87.95 478.18 78.99 489.22 78.99C500.26 78.99 509.22 87.95 509.22 98.99C509.22 110.03 500.26 118.99 489.22 118.99Z" id="cDDLNKIt5"></path><path d="M609.11 301.71C612.9 314.68 612.16 312.13 614.32 319.54C621.92 345.5 607.04 372.71 581.07 380.31C571.88 383 590.48 377.56 581.07 380.31C555.69 387.74 529.08 373.18 521.65 347.79C519.43 340.18 519.93 341.89 516.13 328.92C513.03 318.32 519.11 307.21 529.71 304.11C544.46 299.79 569.54 292.45 584.29 288.13C594.89 285.03 606 291.11 609.11 301.71Z" id="a1otxd29HH"></path></defs><g><g><g><use xlink:href="#d53sefTT1X" opacity="1" fill="#000000" fill-opacity="0"></use><g><use xlink:href="#d53sefTT1X" opacity="1" fill-opacity="0" stroke="#269e99" stroke-width="26" stroke-opacity="1"></use></g></g><g><use xlink:href="#d1iARwoNM" opacity="1" fill="#006662" fill-opacity="1"></use><g><use xlink:href="#d1iARwoNM" opacity="1" fill-opacity="0" stroke="#000000" stroke-width="1" stroke-opacity="0"></use></g></g><g><use xlink:href="#aBSKB9F5I" opacity="1" fill="#269e99" fill-opacity="1"></use><g><use xlink:href="#aBSKB9F5I" opacity="1" fill-opacity="0" stroke="#2b3bf6" stroke-width="2" stroke-opacity="1"></use></g></g><g><use xlink:href="#d135wogiMg" opacity="1" fill="#51b9b5" fill-opacity="1"></use><g><use xlink:href="#d135wogiMg" opacity="1" fill-opacity="0" stroke="#000000" stroke-width="1" stroke-opacity="0"></use></g></g><g><use xlink:href="#b107vlsmDd" opacity="1" fill="#000000" fill-opacity="0"></use><g><use xlink:href="#b107vlsmDd" opacity="1" fill-opacity="0" stroke="#000000" stroke-width="1" stroke-opacity="1"></use></g></g><g><use xlink:href="#mycYJjNNY" opacity="1" fill="#006662" fill-opacity="1"></use><g><use xlink:href="#mycYJjNNY" opacity="1" fill-opacity="0" stroke="#000000" stroke-width="1" stroke-opacity="0"></use></g></g><g><use xlink:href="#bwMy78Rdy" opacity="1" fill="#269e99" fill-opacity="1"></use><g><use xlink:href="#bwMy78Rdy" opacity="1" fill-opacity="0" stroke="#98b554" stroke-width="2" stroke-opacity="1"></use></g></g><g><use xlink:href="#a4MycZ6nF" opacity="1" fill="#cef3f2" fill-opacity="1"></use><g><use xlink:href="#a4MycZ6nF" opacity="1" fill-opacity="0" stroke="#000000" stroke-width="1" stroke-opacity="0"></use></g></g><g><use xlink:href="#b6xWQZe2H" opacity="1" fill="#000000" fill-opacity="0"></use><g><use xlink:href="#b6xWQZe2H" opacity="1" fill-opacity="0" stroke="#141e1e" stroke-width="2" stroke-opacity="1"></use></g></g><g><use xlink:href="#g2j5w9XlDj" opacity="1" fill="#cef3f2" fill-opacity="1"></use><g><use xlink:href="#g2j5w9XlDj" opacity="1" fill-opacity="0" stroke="#000000" stroke-width="1" stroke-opacity="0"></use></g></g><g><use xlink:href="#cDDLNKIt5" opacity="1" fill="#000000" fill-opacity="0"></use><g><use xlink:href="#cDDLNKIt5" opacity="1" fill-opacity="0" stroke="#141e1e" stroke-width="2" stroke-opacity="1"></use></g></g><g><use xlink:href="#a1otxd29HH" opacity="1" fill="#b6f0ee" fill-opacity="1"></use><g><use xlink:href="#a1otxd29HH" opacity="1" fill-opacity="0" stroke="#000000" stroke-width="1" stroke-opacity="0"></use></g></g></g></g></svg>