<svg id="Layer_1" data-name="Layer 1" xmlns="http://www.w3.org/2000/svg" viewBox="0 0 178.09 200"><defs><style>.cls-1{fill:#5f76ff;}.cls-2{fill:#3dcdf9;}.cls-3{fill:#12127c;}</style></defs><title>PyRobot-Icon</title><polygon class="cls-1" points="19.73 57.2 19.73 137.21 0 148.61 0 45.81 19.73 57.2"/><polygon class="cls-2" points="79.15 0.11 79.15 22.89 19.73 57.2 0 45.81 79.15 0.11"/><polygon class="cls-1" points="60.97 81.01 60.97 113.4 41.24 124.79 41.24 69.62 60.97 81.01"/><polygon class="cls-2" points="79.15 47.73 79.15 70.52 60.97 81.01 41.24 69.62 79.15 47.73"/><polygon class="cls-2" points="136.8 69.62 117.07 81.01 98.89 70.52 98.89 47.73 136.8 69.62"/><polygon class="cls-2" points="178.04 45.81 158.31 57.2 98.89 22.89 98.89 0.11 178.04 45.81"/><polygon class="cls-1" points="178.04 45.81 178.04 148.61 158.31 137.21 158.31 57.2 178.04 45.81"/><polygon class="cls-1" points="136.8 69.62 136.8 124.79 117.07 113.4 117.07 81.01 136.8 69.62"/><polygon class="cls-3" points="178.04 148.61 89.02 200 0 148.61 19.73 137.21 79.15 171.52 79.15 146.68 41.24 124.79 60.97 113.4 89.02 129.59 117.07 113.4 136.8 124.79 98.89 146.68 98.89 171.52 158.31 137.21 178.04 148.61"/></svg>