<svg xmlns="http://www.w3.org/2000/svg" xmlns:xlink="http://www.w3.org/1999/xlink" viewBox="0 0 640 640" width="640" height="640"><defs><path d="M124.08 600.88c-37.11 0-67.24-33.04-67.24-73.73 0-40.69 30.13-73.73 67.24-73.73 37.12 0 67.25 33.04 67.25 73.73 0 40.69-30.13 73.73-67.25 73.73z" id="g"/><path d="M565.81 326.73L492.05 97.99l-235.13 70.78-45.51 265.45" id="a"/><path d="M481.12 600.88c-20.15 0-36.51-17.22-36.51-38.42 0-21.21 16.36-38.43 36.51-38.43 20.14 0 36.5 17.22 36.5 38.43 0 21.2-16.36 38.42-36.5 38.42z" id="c"/><path d="M557.23 428.01H9.81v134.8h547.42v-134.8z" id="d"/><path d="M557.23 428.01H9.81v134.8h547.42v-134.8z" id="e"/><path d="M124.08 600.88c-37.11 0-67.24-33.04-67.24-73.73 0-40.69 30.13-73.73 67.24-73.73 37.12 0 67.25 33.04 67.25 73.73 0 40.69-30.13 73.73-67.25 73.73z" id="f"/><path d="M481.12 600.88c-20.15 0-36.51-17.22-36.51-38.42 0-21.21 16.36-38.43 36.51-38.43 20.14 0 36.5 17.22 36.5 38.43 0 21.2-16.36 38.42-36.5 38.42z" id="b"/><path d="M260.7 189.07c-11.04 0-20-8.96-20-20s8.96-20 20-20 20 8.96 20 20-8.96 20-20 20z" id="h"/><path d="M260.7 189.07c-11.04 0-20-8.96-20-20s8.96-20 20-20 20 8.96 20 20-8.96 20-20 20z" id="i"/><path d="M489.22 118.99c-11.04 0-20-8.96-20-20s8.96-20 20-20 20 8.96 20 20-8.96 20-20 20z" id="j"/><path d="M489.22 118.99c-11.04 0-20-8.96-20-20s8.96-20 20-20 20 8.96 20 20-8.96 20-20 20z" id="k"/><path d="M609.11 301.71c3.79 12.97 3.05 10.42 5.21 17.83 7.6 25.96-7.28 53.17-33.25 60.77-9.19 2.69 9.41-2.75 0 0-25.38 7.43-51.99-7.13-59.42-32.52-2.22-7.61-1.72-5.9-5.52-18.87-3.1-10.6 2.98-21.71 13.58-24.81 14.75-4.32 39.83-11.66 54.58-15.98 10.6-3.1 21.71 2.98 24.82 13.58z" id="l"/></defs><use xlink:href="#a" fill-opacity="0"/><use xlink:href="#a" fill-opacity="0" stroke="#269e99" stroke-width="26"/><use xlink:href="#b" fill="#006662"/><use xlink:href="#b" fill-opacity="0" stroke="#000" stroke-opacity="0"/><use xlink:href="#c" fill="#269e99"/><use xlink:href="#c" fill-opacity="0" stroke="#2b3bf6" stroke-width="2"/><use xlink:href="#d" fill="#51b9b5"/><use xlink:href="#d" fill-opacity="0" stroke="#000" stroke-opacity="0"/><use xlink:href="#e" fill-opacity="0"/><use xlink:href="#e" fill-opacity="0" stroke="#000"/><use xlink:href="#f" fill="#006662"/><use xlink:href="#f" fill-opacity="0" stroke="#000" stroke-opacity="0"/><use xlink:href="#g" fill="#269e99"/><use xlink:href="#g" fill-opacity="0" stroke="#98b554" stroke-width="2"/><use xlink:href="#h" fill="#cef3f2"/><use xlink:href="#h" fill-opacity="0" stroke="#000" stroke-opacity="0"/><g fill-opacity="0"><use xlink:href="#i"/><use xlink:href="#i" stroke="#141e1e" stroke-width="2"/></g><use xlink:href="#j" fill="#cef3f2"/><use xlink:href="#j" fill-opacity="0" stroke="#000" stroke-opacity="0"/><g fill-opacity="0"><use xlink:href="#k"/><use xlink:href="#k" stroke="#141e1e" stroke-width="2"/></g><use xlink:href="#l" fill="#b6f0ee"/><use xlink:href="#l" fill-opacity="0" stroke="#000" stroke-opacity="0"/></svg>