<svg id="Layer_1" data-name="Layer 1" xmlns="http://www.w3.org/2000/svg" viewBox="0 0 428.68 97.88"><defs><style>.cls-1{fill:#12127c}.cls-2{fill:#5f76ff}.cls-3{fill:#3dcdf9}</style></defs><path class="cls-1" d="M131.77 26.78h-27.88v46h11v-16H132c8 0 16.57-5.24 16.57-15-.02-11.07-9.06-15-16.8-15zm-.2 20.66h-16.72V36.08h16.53c3.77 0 6.21 2.23 6.21 5.68 0 3.29-2.53 5.68-6.02 5.68zm105.86 8.15l.41-.16c6-2.35 9.64-7.46 9.64-13.67 0-9.1-6.59-15-16.77-15h-29.22v46h11v-16h13l10.8 16h12.81zm-6.92-8.15h-18.06V36.08h17.85c3.72 0 6.22 2.28 6.22 5.68a5.66 5.66 0 0 1-6.01 5.68zm42.18-11c-10.9 0-21.91 5.79-21.91 18.72 0 13.61 11.8 18.44 21.91 18.44s21.91-4.83 21.91-18.44c0-12.93-11-18.72-21.91-18.72zm0 27.86c-6.95 0-10.95-3.31-10.95-9.08 0-6 4-9.48 10.95-9.48s10.95 3.46 10.95 9.48c0 5.78-3.99 9.08-10.95 9.08zm50.52-27.66c-5.14 0-8.85 1.18-11.7 3.71l-.58.53v-16.1H300v48h11v-3.45l.58.49c2.92 2.47 6.52 3.58 11.7 3.58 12.51 0 20-6.82 20-18.24-.1-11.59-7.56-18.52-20.07-18.52zm-1.94 27.66c-5 0-10.34-2.84-10.34-9.08 0-5.49 4.35-9.48 10.34-9.48 6.88 0 10.82 3.46 10.82 9.48 0 5.78-3.94 9.08-10.82 9.08zm47.86-27.86c-10.91 0-21.91 5.79-21.91 18.72 0 13.61 11.8 18.44 21.91 18.44S391 68.77 391 55.16c0-12.93-11-18.72-21.87-18.72zm0 27.86c-7 0-10.95-3.31-10.95-9.08 0-6 4-9.48 10.95-9.48s10.94 3.46 10.94 9.48c0 5.78-3.99 9.08-10.94 9.08zM184.18 37.31l-10.42 23-10.43-23h-12.66l17.74 34.15-7.82 14.4h11.67l5.5-10.92 19-37.63zm222.48 0V26.78H395.7V73.6h10.95v-.74l.01-26.26h10.23v-9.29h-10.23z"/><path class="cls-2" d="M18.69 32.57v32.9l-8.11 4.69V27.89l8.11 4.68z"/><path class="cls-3" d="M43.13 9.1v9.36L18.69 32.57l-8.11-4.68L43.13 9.1z"/><path class="cls-2" d="M35.65 42.36v13.32l-8.11 4.68V37.68l8.11 4.68z"/><path class="cls-3" d="M43.13 28.68v9.37l-7.48 4.31-8.11-4.68 15.59-9zm23.7 9l-8.11 4.68-7.48-4.31v-9.37l15.59 9zm16.96-9.79l-8.12 4.68-24.43-14.11V9.1l32.55 18.79z"/><path class="cls-2" d="M83.79 27.89v42.27l-8.12-4.69v-32.9l8.12-4.68zm-16.96 9.79v22.68l-8.11-4.68V42.36l8.11-4.68z"/><path class="cls-1" d="M83.79 70.16L47.18 91.29l-36.6-21.13 8.11-4.69 24.44 14.11V69.36l-15.59-9 8.11-4.68 11.53 6.66 11.54-6.66 8.11 4.68-15.59 9v10.22l24.43-14.11 8.12 4.69z"/></svg>