<svg id="Layer_1" data-name="Layer 1" xmlns="http://www.w3.org/2000/svg" viewBox="0 0 178.09 200"><defs><style>.cls-1{fill:#5f76ff}.cls-2{fill:#3dcdf9}</style></defs><path class="cls-1" d="M19.73 57.2v80.01L0 148.61V45.81L19.73 57.2z"/><path class="cls-2" d="M79.15.11v22.78L19.73 57.2 0 45.81 79.15.11z"/><path class="cls-1" d="M60.97 81.01v32.39l-19.73 11.39V69.62l19.73 11.39z"/><path class="cls-2" d="M79.15 47.73v22.79L60.97 81.01 41.24 69.62l37.91-21.89zm57.65 21.89l-19.73 11.39-18.18-10.49V47.73l37.91 21.89zm41.24-23.81L158.31 57.2 98.89 22.89V.11l79.15 45.7z"/><path class="cls-1" d="M178.04 45.81v102.8l-19.73-11.4V57.2l19.73-11.39zM136.8 69.62v55.17l-19.73-11.39V81.01l19.73-11.39z"/><path fill="#12127c" d="M178.04 148.61L89.02 200 0 148.61l19.73-11.4 59.42 34.31v-24.84l-37.91-21.89 19.73-11.39 28.05 16.19 28.05-16.19 19.73 11.39-37.91 21.89v24.84l59.42-34.31 19.73 11.4z"/></svg>